<svg xmlns="http://www.w3.org/2000/svg" viewBox="0 0 1024 1024">
	<path
		d="M930.24110613 687.94332907H92.44875947c-16.4922784 0-29.97895573-13.37107627-29.97895574-29.90188907 0-16.4922784 13.48667627-29.97895573 29.97895574-29.97895467h837.79234666c16.4922784 0 29.97895573 13.48667627 29.97895574 29.97895467s-13.44814293 29.90188907-29.97895574 29.90188907z m-59.76524373-346.64612054c-11.7526752 11.67560853-30.6340224 11.67560853-42.30963093 0-11.7526752-11.67560853-11.7526752-30.67255573 0-42.30963093l42.30963093-42.30963093a29.84023467 29.84023467 0 0 1 42.23256427 0 29.79399467 29.79399467 0 0 1 0 42.30963093l-42.23256427 42.30963093z m-66.43151467 226.96149974c-27.82108693-136.5622336-147.92957547-239.40777493-292.73794773-239.407776-144.69277227 0-264.83979413 102.8455424-292.66088107 239.407776H155.643472c23.0429504-168.81465707 173.28452693-299.28861973 355.662928-299.28861974 182.494 0 332.6970432 130.47396267 355.7399936 299.28861974h-63.00204587z m-292.73794773-359.05386347c-16.4922784 0-29.90188907-13.37107627-29.90188907-29.97895467V119.422112c0-16.4922784 13.37107627-29.97895573 29.90188907-29.97895467 16.6078784 0 29.97895573 13.48667627 29.97895467 29.97895467v59.76524373c0 16.64641173-13.37107627 30.01748907-29.97895467 30.01748907zM152.2140032 341.29720853L109.90437227 298.94904427c-11.67560853-11.67560853-11.67560853-30.67255573 0-42.30963094 11.7526752-11.67560853 30.6340224-11.67560853 42.30963093 0l42.30963093 42.30963094a29.79399467 29.79399467 0 0 1 0 42.30963093c-11.6370752 11.71414187-30.55695573 11.71414187-42.30963093 0.03853333z m-29.90188907 406.52696427h778.027104c16.53081173 0 29.90188907 13.37107627 29.901888 29.901888a29.90188907 29.90188907 0 0 1-29.901888 29.90188907H122.31211413c-16.53081173 0-29.90188907-13.37107627-29.901888-29.90188907 0.03853333-16.53081173 13.4096096-29.90188907 29.901888-29.901888z m89.7827328 119.64608747h598.50017174c16.53081173 0 29.90188907 13.37107627 29.90188906 29.90188906 0 16.6078784-13.37107627 29.97895573-29.90188906 29.97895467H212.09484693c-16.53081173 0-29.90188907-13.37107627-29.901888-29.97895467 0-16.53081173 13.37107627-29.90188907 29.901888-29.90188906z"
	></path>
</svg>
