<svg xmlns="http://www.w3.org/2000/svg" viewBox="0 0 1024 1024">
	<path
		d="M902.234375 123.61132812H121.765625C92.234375 123.61132812 68.15234375 147.25390625 68.15234375 176.2578125v529.27734375c0 29.00390625 24.08203125 52.64648438 53.61328125 52.64648438h267.45117188v38.3203125c0 35.06835938-29.09179688 63.6328125-64.86328126 63.6328125h-58.97460937c-11.33789063 0-20.47851563 8.96484375-20.47851563 20.12695312 0 11.07421875 9.140625 20.12695313 20.47851563 20.12695313h493.15429688c11.33789063 0 20.47851563-8.96484375 20.47851562-20.12695313 0-11.07421875-9.140625-20.12695313-20.47851563-20.12695312h-58.97460937c-35.77148438 0-64.86328125-28.56445313-64.86328125-63.6328125v-38.3203125H902.234375c29.53125 0 53.61328125-23.64257813 53.61328125-52.64648438V176.2578125c0-29.00390625-23.99414063-52.64648438-53.61328125-52.64648438z m-494.38476563 736.5234375c13.97460938-17.578125 22.32421875-39.7265625 22.32421876-63.6328125v-38.3203125h163.74023437v38.3203125c0 23.99414063 8.34960938 46.0546875 22.32421875 63.6328125H407.84960937z m507.04101563-154.59960937c0 6.85546875-5.71289063 12.48046875-12.65625 12.48046875H121.765625c-6.94335938 0-12.65625-5.53710938-12.65625-12.48046875V599.890625h805.86914063v105.64453125z m0-145.81054688H109.109375V176.2578125c0-6.85546875 5.71289063-12.48046875 12.65625-12.48046875h780.46875c6.94335938 0 12.65625 5.53710938 12.65625 12.39257813v383.55468749z m0 0"
	/>
	<path
		d="M489.93945312 658.953125c0 7.734375 4.21875 14.94140625 11.07421876 18.80859375 6.85546875 3.8671875 15.29296875 3.8671875 22.06054687 0 6.85546875-3.8671875 11.07421875-11.07421875 11.07421875-18.80859375 0-11.953125-9.93164063-21.70898438-22.06054688-21.70898438-12.3046875 0-22.1484375 9.75585938-22.14843749 21.70898438z m57.12890626-396.82617188c-7.99804688-7.82226563-20.91796875-7.82226563-28.91601563 1e-8L373.484375 404.15820312c-7.99804688 7.82226563-7.99804688 20.56640625 0 28.38867188 3.8671875 3.77929688 9.05273438 5.88867188 14.50195313 5.88867188 5.44921875 0 10.63476563-2.109375 14.50195312-5.88867188L547.06835938 290.515625c7.99804688-7.82226563 7.99804688-20.56640625 0-28.38867188z m85.78124999 82.26562501c-7.99804688-7.82226563-20.91796875-7.82226563-28.91601562 0L546.27734375 400.99414062c-7.99804688 7.82226563-7.99804688 20.56640625 0 28.38867188 3.8671875 3.77929688 9.05273438 5.88867188 14.50195313 5.88867188 5.2734375 0 10.45898438-1.93359375 14.50195312-5.88867188l57.65625-56.6015625c7.82226563-7.82226563 7.82226563-20.47851563-0.08789063-28.38867188z m0 0"
	/>
</svg>
