<svg xmlns="http://www.w3.org/2000/svg" viewBox="0 0 1024 1024">
	<path
		d="M997.81653183 225.76185283l-16.13904521-10.40543789-8.70659034-19.11202733c-3.18533818-5.94596425-5.52125215-0.21235605-5.73360821 0l-8.70659031 19.11202733-16.13904523 10.40543789c-0.84942334 0.63706729-4.24711758 3.39769337 0.21235606 6.79538672l15.92668917 10.40543789 8.70659031 18.89967129s2.54827002 5.94596425 5.73360821 0l8.70659034-18.89967129 15.92668916-10.40543789c4.45947276-3.39769337 1.0617794-6.15832031 0.21235605-6.79538672z m-14.65255459 4.88418399l-7.43245487 4.88418487-4.24711758 9.13130243c-1.48649063 2.76062607-2.76062607 0-2.76062608 0l-4.03476152-9.13130243-7.64481094-4.88418487a1.69884667 1.69884667 0 0 1 0-3.18533731l7.64481094-4.88418486 4.03476152-9.13130244c0.21235605 0 1.27413545-2.76062607 2.76062608 0l4.24711758 9.13130244 7.64481093 4.88418486c0.42471211 0.21235605 1.91120273 1.69884667-0.21235606 3.18533731zM326.13494785 206.86218067L253.72159913 159.71918047 214.22340987 74.13976865c-14.22784249-26.75683828-25.27034766-1.0617794-25.69505889-0.21235605L149.03016084 159.71918047 76.61681299 206.86218067c-3.82240547 2.54827002-19.3243834 15.28962187 0.84942334 30.57924374l71.56392451 46.50593379L188.31599492 369.31441396s11.46721641 27.39390557 25.90741495 0h0.21235605l39.28583319-85.36705576 71.35156935-46.50593379c20.38616279-15.28962187 4.88418487-28.03097373 1.0617794-30.57924375zM260.09227549 229.15954619l-33.97693799 22.08500948-18.68731523 40.55996954c-6.79538759 12.95370703-12.31663974 0-12.31663975 0l-18.68731611-40.55996954-33.97693711-22.08500948c-9.55601367-7.22009883-2.12355878-13.16606309-0.42471211-14.44019853l34.40164922-22.50972071 18.89967216-40.77232558c0.21235605-0.42471211 5.30889609-12.5289958 12.1042837 0.21235605l18.68731523 40.55996953L260.51698672 214.71934766c1.91120273 1.27413545 9.34365761 7.22009883-0.42471123 14.44019853zM351.83000674 564.89416016l-31.21631104-20.38616279-16.98846943-36.94991925c-6.15832031-11.67957246-11.0425043-0.63706729-11.25486035-0.21235605l-16.98846855 37.1622753-31.4286671 20.38616279c-1.69884667 1.27413545-8.28187822 6.58303154 0.42471124 13.37841914l31.00395586 19.96145068 16.98846855 36.94992012s4.88418487 11.89192852 11.25486035 0l16.98846943-36.94992012 31.00395498-19.96145068c8.70659033-6.79538759 1.91120273-12.10428369 0.21235606-13.37841914z m-28.45568496 9.76836973l-14.65255459 9.55601367-8.06952305 17.41318066c-2.97298213 5.7336082-5.30889609 0-5.30889609 0l-8.06952305-17.41318066-14.86490977-9.55601367c-4.03476153-3.18533818-0.84942334-5.7336082 0-6.37067549l14.86490977-9.76836973 8.06952305-17.62553672c0-0.21235605 2.33591484-5.30889609 5.30889609 0.21235606l8.06952305 17.41318066 14.86490976 9.76836973c0.84942334 0.63706729 4.03476153 3.18533818-0.21235517 6.37067549z"
	></path>
	<path
		d="M830.90482578 597.38460665c-23.78385615 94.71071338-83.24349697 179.2283458-168.82290791 231.68024296-203.64926924 124.65288985-401.56493028-11.67957246-401.56493115-11.67957246C749.57253154 693.15709942 631.07796201 172.46053145 631.07796201 172.46053145c91.31302002 42.68352743 145.25140781 103.84201494 175.83065156 169.03526483l63.70675841-26.33212704A446.15966133 446.15966133 0 0 0 608.14352919 94.10121934C521.71469404 76.90039472 545.49855107 150.16316679 545.49855107 150.16316679h-0.21235605a440.21369707 440.21369707 0 0 1 31.21631103 162.87694366c0 229.13197295-173.28238154 417.49162031-396.04367814 441.91254375s-78.35931211 22.93443281 5.73360823 100.2319664a441.7001877 441.7001877 0 0 0 288.59161288 106.81499707c224.24778807 0 409.63445332-166.06228183 440.21369707-381.81583564z"
	></path>
	<path
		d="M806.90861357 341.49579629s12.95370703 23.14678887 42.68352833 11.25486035c0 0 25.69505888-10.61779307 21.02323008-37.5869874h-38.22405469zM830.90482578 597.38460665s0-30.57924375 35.03871738-36.52520802c0 0 36.73756406-8.91894638 49.05420293 19.3243834l-22.08500947 29.94217646z"
	></path>
</svg>
