<svg xmlns="http://www.w3.org/2000/svg" viewBox="0 0 1024 1024">
	<path
		d="M1147.45007317 74.71068682l-948.8671919 0C138.18306741 74.71068682 89.11703703 127.20186758 89.11703703 191.87777479l0 641.41396174c0 64.6759081 48.96233437 117.16281211 109.46584511 117.16281211L1147.45007317 950.45454863c60.39981473 0 109.46584511-52.48690489 109.46584512-117.1628121l0-641.41396172C1256.91591829 127.20186758 1207.84988791 74.71068682 1147.45007317 74.71068682L1147.45007317 74.71068682 1147.45007317 74.71068682 1147.45007317 74.71068682zM1207.20633606 833.29173653c0 27.36485771-22.44948838 64.56686748-50.02708183 64.56686748L189.07071271 897.85860401c-27.68556445 0-50.03135771-37.20307852-50.0313577-64.56686749L139.03935501 191.76873506c0-27.36913359 22.44948838-62.75059717 50.0313577-62.75059717l968.10961027 0c27.68556445 0 50.02708183 35.38146357 50.02708181 62.75059717L1207.20740479 833.29173653 1207.20633606 833.29173653 1207.20633606 833.29173653 1207.20633606 833.29173653zM1036.59342923 320.05152705l-197.76930469 0c-11.01200889 0-19.98966621 8.23041036-19.98966622 18.49517139l0 15.17906162c0 10.26476105 8.97765732 18.49517138 19.98966622 18.49517139l197.76930469 0c11.11570401 0 19.98966621-8.23041036 19.9896662-18.49517139l0-15.17906162C1056.58309542 328.2819374 1047.60543809 320.05152705 1036.59342923 320.05152705L1036.59342923 320.05152705 1036.59342923 320.05152705 1036.59342923 320.05152705zM1036.59342923 487.46270849l-197.76930469 0c-11.01200889 0-19.98966621 8.23041036-19.98966622 18.48982677l0 13.25909531c0 10.26048516 8.97765732 18.49517138 19.98966622 18.49517138l197.76930469 0c11.11570401 0 19.98966621-8.23468623 19.9896662-18.49517138l0-13.25909531C1056.58309542 495.69311885 1047.60543809 487.46270849 1036.59342923 487.46270849L1036.59342923 487.46270849 1036.59342923 487.46270849 1036.59342923 487.46270849zM1036.59342923 652.51776377l-197.76930469 0c-11.01200889 0-19.98966621 8.3394501-19.98966622 18.49517139l0 12.08103223c0 10.26048516 8.97765732 18.49089551 19.98966622 18.4908955l197.76930469 0c11.11570401 0 19.98966621-8.23041036 19.9896662-18.4908955l0-12.08103223C1056.58309542 660.85721388 1047.60543809 652.51776377 1036.59342923 652.51776377L1036.59342923 652.51776377 1036.59342923 652.51776377 1036.59342923 652.51776377zM471.08012023 347.42066066c49.70958223 0 90.11973076 40.40480391 90.11973077 90.11438524 0 24.05302382-11.97733711 48.53686377-32.92698605 67.2447709-17.63888379 15.82261347-24.80027079 40.30110791-17.96066016 62.96333291 6.83961065 22.55852901 25.97833477 39.12838945 49.28411075 42.33545947 2.02900606 0.32177636 26.1910705 4.4888291 48.53151826 15.82261349 10.36845703 5.23607607 18.38613164 11.11570401 23.19673625 16.88736092 4.27609337 5.13238096 5.13238096 9.08669795 5.13238095 13.47183106l0 23.51851172L305.59424885 679.77892637l0-23.40947197c0-4.49310498 0-16.46509658 28.11638057-30.57620362 22.23675263-11.22474463 46.18073584-15.17906162 48.20974276-15.50083711 23.51851172-3.0980294 42.65723584-19.56419474 49.70958223-42.22641885 7.05769189-22.66222412-0.10369511-47.3587998-17.85161953-63.18141328-20.94964893-18.70790713-32.92698604-43.18640244-32.92698603-67.23942539C380.96038946 387.9345043 421.37053802 347.42066066 471.08012023 347.42066066M469.26384992 300.48733232c-78.25677979 0-141.6455833 63.39414903-141.6455833 141.6455833 0 42.0136831 20.84595381 79.75127372 49.92231798 105.7296085 0 0-120.69593439 16.99533193-120.69593439 99.73666406l0 53.34639961c0 12.18472734 9.83929043 22.01974102 22.02401779 22.01974101l380.78501924 0c12.19007198 0 22.02401777-9.83394492 22.02401776-22.01974101l0-53.34639961c0-81.88504453-120.69593439-99.73666406-120.69593438-99.73666406 29.08170878-25.97833477 49.9276626-63.71592451 49.92766261-105.7296085C610.90943233 363.88148135 547.5152842 300.48733232 469.26384992 300.48733232L469.26384992 300.48733232 469.26384992 300.48733232 469.26384992 300.48733232 469.26384992 300.48733232zM469.26384992 300.48733232"
	/>
</svg>
