<svg xmlns="http://www.w3.org/2000/svg" viewBox="0 0 1024 1024">
	<path
		d="M839.27272719 141.09090875l-654.54545438 0C124.46545437 141.09090875 75.63636406 189.92 75.63636406 250.18181844l0 523.63636406c0 60.26181844 48.82909125 109.09090875 109.09090875 109.09090875l654.54545438 0c60.26181844 0 109.09090875-48.82909125 109.09090875-109.09090875L948.36363594 250.18181844C948.36363594 189.92 899.53454563 141.09090875 839.27272719 141.09090875zM904.72727281 773.81818156c0 36.13090875-29.32363594 65.45454562-65.45454562 65.45454563l-654.54545438 0C148.59636406 839.27272719 119.27272719 809.94909125 119.27272719 773.81818156L119.27272719 250.18181844c0-36.13090875 29.32363594-65.45454562 65.45454562-65.45454563l654.54545438 0C875.40363594 184.72727281 904.72727281 214.05090875 904.72727281 250.18181844L904.72727281 773.81818156zM206.54545438 686.54545437l239.99999999 1e-8 1e-8-43.63636407L206.54545438 642.90909125 206.54545438 686.54545437zM206.54545438 533.81818156l239.99999999 0 1e-8-43.63636406L206.54545438 490.18181844 206.54545438 533.81818156zM206.54545438 381.09090875l239.99999999 0L446.54545438 337.45454563 206.54545438 337.45454563 206.54545438 381.09090875zM734.63272719 529.67272719C758.37090875 509.64363594 773.81818156 480.05818156 773.81818156 446.54545438 773.81818156 386.28363594 724.98909125 337.45454563 664.72727281 337.45454563 604.46545438 337.45454563 555.63636406 386.28363594 555.63636406 446.54545438c0 33.51272719 15.44727281 63.09818156 39.18545438 83.12727281C545.81818156 555.11272719 512 605.73090875 512 664.72727281c0 12.04363594 9.77454563 21.81818156 21.81818156 21.81818157 12.04363594 0 21.81818156-9.77454563 21.81818157-21.81818157 0-60.26181844 48.82909125-109.09090875 109.09090875-109.09090875 60.26181844 0 109.09090875 48.82909125 109.09090875 109.09090875 0 12.04363594 9.77454563 21.81818156 21.81818156 21.81818157 12.04363594 0 21.81818156-9.77454563 21.81818156-21.81818157C817.45454562 605.73090875 783.63636406 555.11272719 734.63272719 529.67272719zM664.72727281 512c-36.13090875 0-65.45454562-29.32363594-65.45454562-65.45454562C599.27272719 410.41454563 628.59636406 381.09090875 664.72727281 381.09090875 700.85818156 381.09090875 730.18181844 410.41454563 730.18181844 446.54545438 730.18181844 482.67636406 700.85818156 512 664.72727281 512z"
	/>
</svg>
