<svg xmlns="http://www.w3.org/2000/svg" viewBox="0 0 1024 1024">
	<path
		d="M284.4672 687.104L228.69333333 742.94613333a26.35093333 26.35093333 0 0 0 37.20533334 37.20533334l55.84213333-55.9104a26.35093333 26.35093333 0 0 0-37.2736-37.13706667m-15.9744-397.5168c10.30826667 10.24 27.17013333 10.24 37.54666667 0a26.624 26.624 0 0 0 0-37.54666667l-56.32-56.32a26.48746667 26.48746667 0 1 0-37.54666667 37.4784l56.32 56.38826667M193.87733333 469.67466667h-79.59893333a26.48746667 26.48746667 0 1 0 0 53.0432h79.59893333c14.67733333 0 26.55573333-11.74186667 26.55573334-26.48746667a26.624 26.624 0 0 0-26.624-26.624m318.80533333-265.55733333a26.48746667 26.48746667 0 0 0 26.48746667-26.48746667v-79.80373333a26.48746667 26.48746667 0 1 0-53.11146667 0V177.49333333a26.624 26.624 0 0 0 26.624 26.48746667m255.52213333 73.86453333l55.77386667-55.84213333a26.35093333 26.35093333 0 0 0-37.20533333-37.20533333l-55.77386667 55.7056a26.35093333 26.35093333 0 1 0 37.20533333 37.34186666m142.81386667 191.76106667h-79.6672a26.48746667 26.48746667 0 1 0 0 53.0432h79.6672a26.624 26.624 0 0 0 0-53.0432M756.66773333 702.80533333a26.48746667 26.48746667 0 1 0-37.54666666 37.4784l56.38826666 56.38826667c10.30826667 10.24 27.17013333 10.24 37.54666667 0a26.624 26.624 0 0 0 0-37.54666667l-56.32-56.32m-244.05333333-445.78133333a239.2064 239.2064 0 1 0 0 478.4128 239.2064 239.2064 0 1 0 0-478.34453333m0 531.11466666a26.55573333 26.55573333 0 0 0-26.624 26.76053334v79.53066666a26.528 26.528 0 0 0 26.624 26.624 26.4192 26.4192 0 0 0 26.48746666-26.624v-79.53066666a26.624 26.624 0 0 0-26.48746666-26.69226667z"
	/>
</svg>
