<svg xmlns="http://www.w3.org/2000/svg" viewBox="0 0 1024 1024">
	<path
		d="M807.82186667 113.77813333c69.12106667 0 125.15626667 56.03413333 125.15626666 125.1552v546.13333334c0 69.12-56.0352 125.1552-125.15626666 125.1552H216.17813333c-69.12213333 0-125.15626667-56.03413333-125.15626666-125.1552V238.93333333c0-69.12106667 56.03413333-125.1552 125.15626666-125.1552zM283.2608 470.4032L159.28853333 594.40213333V785.06666667c0 31.104 24.96426667 56.37866667 55.9488 56.88106666l0.9408 0.00746667h591.64373334c21.0784 0 39.48053333-11.46453333 49.30986666-28.49813333a34.10026667 34.10026667 0 0 1-1.3024-0.91733334l-2.7008-2.21653333-226.23573333-205.68533333-90.75733333 90.7872c-12.9696 12.97066667-33.66506667 13.25866667-46.98453334 1.22453333l-2.40746666-2.4-203.48266667-223.8464z m524.56106667-288.3584H216.17813333c-31.41973333 0-56.8896 25.46986667-56.8896 56.88853333v258.92693334l101.01973334-101.01866667c12.97066667-12.97066667 33.66613333-13.25866667 46.9856-1.22453333l2.40746666 2.4 203.4592 223.824 88.48106667-88.46613334c12.07893333-12.07786667 31.05386667-13.26613333 44.48746667-3.26933333l2.60906666 2.14933333 215.97226667 196.33813334V238.93333333c0-31.104-24.9632-56.37866667-55.94666667-56.88106666l-0.94186666-0.00746667zM648.53333333 295.82186667c43.9872 0 79.6448 35.6576 79.6448 79.6448S692.52053333 455.11146667 648.53333333 455.11146667 568.88853333 419.45386667 568.88853333 375.46666667s35.6576-79.6448 79.6448-79.6448z"
	/>
</svg>
