<svg xmlns="http://www.w3.org/2000/svg" viewBox="0 0 1024 1024">
	<path
		d="M849.49886127 343.25088577v506.24924112h-84.37487394V343.25088577h84.37487395m-1e-8-84.3748731h-84.37487394a84.3748731 84.3748731 0 0 0-84.3748731 84.3748731v506.24924112a84.3748731 84.3748731 0 0 0 84.3748731 84.37487311h84.37487394a84.3748731 84.3748731 0 0 0 84.37487311-84.37487311V343.25088577a84.3748731 84.3748731 0 0 0-84.37487311-84.3748731zM554.18680374 596.37550592v253.12462098h-84.3748731V596.37550592h84.3748731m0-84.37487311h-84.3748731a84.3748731 84.3748731 0 0 0-84.37487395 84.37487311v253.12462098a84.3748731 84.3748731 0 0 0 84.37487395 84.3748731h84.3748731a84.3748731 84.3748731 0 0 0 84.37487393-84.3748731V596.37550592a84.3748731 84.3748731 0 0 0-84.37487393-84.37487311zM258.87474704 765.12525296v84.37487394H174.49987311v-84.37487394h84.37487393m0-84.3748731H174.49987311a84.3748731 84.3748731 0 0 0-84.37487311 84.3748731v84.37487394a84.3748731 84.3748731 0 0 0 84.3748731 84.3748731h84.37487394a84.3748731 84.3748731 0 0 0 84.3748731-84.3748731v-84.37487394a84.3748731 84.3748731 0 0 0-84.3748731-84.3748731zM162.47645373 505.2506427L433.53073501 234.19636224V258.87601267a42.18743655 42.18743655 0 0 0 84.37487311 0V132.31370218A42.18743655 42.18743655 0 0 0 511.99936719 109.74342346a31.21870303 31.21870303 0 0 0-5.27342926-6.53905261 40.92181403 40.92181403 0 0 0-6.53905261-5.48436676A42.18743655 42.18743655 0 0 0 475.71817156 90.12626562h-126.56231047a42.18743655 42.18743655 0 0 0 0 84.3748731h24.67965123L102.78123105 445.55542002a42.18743655 42.18743655 0 0 0 0 59.69522268 42.18743655 42.18743655 0 0 0 59.69522268 0z"
	/>
</svg>
