<svg xmlns="http://www.w3.org/2000/svg" viewBox="0 0 1024 1024">
	<path
		d="M187.36721769 876.44732711c0 28.00517727-20.08921247 50.70861957-44.86913746 50.70861958l0 0c-24.78116652 0-44.86913744-22.70344351-44.86913744-50.70861958l0-783.61093248c0-28.00517727 20.08921247-50.70861957 44.86913744-50.70861957l0 0c24.78116652 0 44.86913744 22.70344351 44.86913746 50.70861957L187.36721769 876.44732711z"
	/>
	<path
		d="M396.64102544 743.18863474c0 29.58240912-23.98137366 53.56378158-53.56378157 53.56378157l0 0c-29.58240912 0-53.56378158-23.98137366-53.56378158-53.56378157l0-145.5772443c0-29.58240912 23.98137366-53.56378158 53.56378158-53.56378158l0 0c29.58240912 0 53.56378158 23.98137366 53.56378157 53.56378158L396.64102544 743.18863474z"
	/>
	<path
		d="M622.57263533 743.18863474c0 29.58240912-23.98137366 53.56378158-53.56378158 53.56378157l0 0c-29.58240912 0-53.56378158-23.98137366-53.56378157-53.56378157L515.44507097 250.93213874c0-29.58240912 23.98137366-53.56378158 53.56378156-53.56378157l0 0c29.58240912 0 53.56378158 23.98137366 53.56378158 53.56378157L622.57263533 743.18863474z"
	/>
	<path
		d="M857.87324993 743.18863474c0 29.58240912-23.98137366 53.56378158-53.56378158 53.56378157l0 0c-29.58240912 0-53.56378158-23.98137366-53.56378158-53.56378157L750.74568677 526.42359737c0-29.58240912 23.98137366-53.56378158 53.56378158-53.56378158l0 0c29.58240912 0 53.56378158 23.98137366 53.56378158 53.56378158L857.87324993 743.18863474z"
	/>
	<path
		d="M154.56203935 927.15470514c-28.00517727 0-50.70861957-19.24098489-50.70861956-42.97645897l0 0c0-23.7354741 22.70344351-42.97521744 50.70861956-42.97521744l758.772638 0c28.00517727 0 50.70861957 19.24098489 50.70861957 42.97521744l0 0c0 23.7354741-22.70344351 42.97645898-50.70861957 42.97645897L154.56203935 927.15470514z"
	/>
</svg>
