<svg xmlns="http://www.w3.org/2000/svg" viewBox="0 0 1024 1024">
	<path
		d="M730.88 610.96000001v90.72c0 10.56 8.64 19.2 19.2 19.2h91.2c15.36 0 27.36-12.48 27.36-27.36 0-15.36-12.48-27.36-27.36-27.36H785.6v-54.72c0-15.36-12.48-27.36-27.36-27.36-14.88-0.48-27.36 11.52-27.36 26.88zM812.96 418.96000001h54.72V254.80000001c0-60.48-49.44-109.44-109.44-109.44h-109.44V103.60000001c0-15.36-12.48-27.36-27.36-27.36-15.36 0-27.36 12.48-27.36 27.36v41.28H319.52V103.60000001c0-15.36-12.48-27.36-27.36-27.36-15.36 0-27.36 12.48-27.36 27.36v41.28H155.36c-60.48 0-109.44 49.44-109.44 109.44v548.16c0 60.48 49.44 109.44 109.44 109.44h301.44c15.36 0 27.36-12.48 27.36-27.36 0-15.36-12.48-27.36-27.36-27.36H155.36c-30.24 0-54.72-24.48-54.72-54.72V418.96000001h712.32zM100.64 254.80000001c0-30.24 24.48-54.72 54.72-54.72h109.44v27.36c0 15.36 12.48 27.36 27.36 27.36 15.36 0 27.36-12.48 27.36-27.36V199.60000001H593.6v27.36c0 15.36 12.48 27.36 27.36 27.36 15.36 0 27.36-12.48 27.36-27.36V199.60000001h109.44c30.24 0 54.72 24.48 54.72 54.72v109.44H100.64V254.80000001z"
	></path>
	<path
		d="M237.44 528.88000001h109.44c15.36 0 27.36 12.48 27.36 27.36 0 15.36-12.48 27.36-27.36 27.36H237.44c-15.36 0-27.36-12.48-27.36-27.36 0-15.36 12.48-27.36 27.36-27.36z m0 164.16h109.44c15.36 0 27.36 12.48 27.36 27.36 0 15.36-12.48 27.36-27.36 27.36H237.44c-15.36 0-27.36-12.48-27.36-27.36s12.48-27.36 27.36-27.36z m693.6-136.8c-16.32-22.08-38.4-41.28-62.88-54.72-16.32-11.04-35.52-16.32-54.72-22.08-16.32-5.28-35.52-8.16-54.72-8.16-120.48 0-219.36 98.88-219.36 219.36 0 65.76 30.24 123.36 73.92 164.64 38.4 33.12 90.24 54.72 145.44 54.72 68.64 0 131.52-33.12 172.8-82.08 30.24-38.4 46.56-84.96 46.56-137.28-0.48-52.32-16.8-96-47.04-134.4z m-65.76 260.16c-27.36 24.48-65.76 41.28-107.04 41.28-90.24 0-164.64-73.92-164.64-164.64 0-90.24 73.92-164.64 164.64-164.64 19.2 0 38.4 2.88 54.72 11.04 19.2 8.16 38.4 19.2 54.72 33.12 33.12 30.24 54.72 73.92 54.72 123.36 0.48 46.56-21.6 90.24-57.12 120.48z"
	></path>
</svg>
