<svg xmlns="http://www.w3.org/2000/svg" viewBox="0 0 1024 1024">
	<path
		d="M173.97314368 499.73696651a144.49052109 144.49052109 0 0 0 53.31753545 10.66350761 138.625592 138.625592 0 0 0 95.97156416-39.98815225 143.9573458 143.9573458 0 0 0 97.30450195 41.58767813h2.13270205a156.2203793 156.2203793 0 0 0 100.50355459-38.65521357 178.08056895 178.08056895 0 0 0 23.72630273 17.86137451l2.93246456 1.86611396 3.99881513 2.39928926 3.19905265 1.59952587h2.13270117l4.79857851 2.39928927 4.26540235 1.59952588H575.98736204l5.59834101 1.59952587h2.93246456a99.17061592 99.17061592 0 0 0 31.99052109 11.7298582 122.89691953 122.89691953 0 0 0 23.45971552-2.39928925l4.53199044-1.33293867 5.3317538-1.59952588h8.53080557a29.85781992 29.85781992 0 0 0 7.19786777-3.19905176l2.93246455-1.33293867 2.39928839-1.59952588 2.93246455-1.59952588 4.79857851-2.66587734h1.59952588l2.13270117-1.33293779a233.79739365 233.79739365 0 0 0 23.72630361-18.1279626 158.08649326 158.08649326 0 0 0 100.50355459 38.65521357h2.39928926A142.35781992 142.35781992 0 0 0 909.75513411 470.14573467a135.95971552 135.95971552 0 0 0 95.17180078 39.98815137 144.49052109 144.49052109 0 0 0 53.31753545-10.66350674 138.625592 138.625592 0 0 0 85.04146934-171.68246456 21.86018965 21.86018965 0 0 0-1.33293779-3.73222792l-116.23222794-239.92890997a35.18957373 35.18957373 0 0 0-31.99052109-21.59360156h-293.24644541a17.06161113 17.06161113 0 0 0-8.26421836 0H238.48736204a34.65639844 34.65639844 0 0 0-31.45734668 19.72748848l-116.23222705 239.92890996A19.72748848 19.72748848 0 0 0 88.66508714 328.58767812a151.95497607 151.95497607 0 0 0 2.13270117 86.90758243 136.49289082 136.49289082 0 0 0 83.17535537 84.24170596z m799.7630335-369.4905211l106.63507089 218.8684837a71.71208526 71.71208526 0 0 1-45.05331796 87.97393388 73.84478643 73.84478643 0 0 1-26.65876729 5.33175293 84.77488125 84.77488125 0 0 1-64.51421836-42.12085254v-1.59952676l-1.86611308-2.66587646-43.98696739-266.58767813z m-148.48933711 0l47.18601914 281.78317529a79.97630362 79.97630362 0 0 1-58.11611397 31.45734581h-1.59952587a100.23696651 100.23696651 0 0 1-70.91232188-37.32227491l-9.06398086-275.91824619z m-258.05687168 0h97.57109004l8.26421836 286.04857852a111.16706133 111.16706133 0 0 1-22.39336494 18.9277251l-1.86611397 1.33293779a8.79739365 8.79739365 0 0 0-3.46563984 1.86611396h-12.2630335a66.64691953 66.64691953 0 0 1-9.33056806 0H616.5086887a39.98815137 39.98815137 0 0 1-9.33056894 0l-4.79857764-1.59952588h-7.46445498l-2.66587735-1.59952587-2.39928837 2.13270117h-4.79857852a137.2926542 137.2926542 0 0 1-26.65876816-22.39336494z m-159.95260635 0h91.17298564L488.54660345 411.2298582a95.97156416 95.97156416 0 0 1-66.64691954 32.25710831 84.24170596 84.24170596 0 0 1-63.18127968-35.72274815z m-252.19194345 219.1350709l106.63507089-219.1350709h73.57819922L290.20537161 403.49881513a81.30924141 81.30924141 0 0 1-62.1149291 38.65521359 73.31161114 73.31161114 0 0 1-26.65876816-5.5983419 69.57938408 69.57938408 0 0 1-45.31990518-87.17417051z m959.71563984 542.77251241H1043.04897317V561.0521331a34.65639844 34.65639844 0 0 0-69.31279599 0v331.10189561H504.80845208v-239.92890996a34.65639844 34.65639844 0 0 0-69.31279688 0v241.26184776H260.6141389V561.0521331a34.65639844 34.65639844 0 0 0-69.31279599 0v331.10189561H125.72077396a33.85663506 33.85663506 0 1 0-1e-8 67.71327012h987.70734581a33.85663506 33.85663506 0 1 0 0-67.71327012zM790.59044251 550.38862549a34.92298565 34.92298565 0 0 0-47.71919444 0 35.18957373 35.18957373 0 0 0-10.66350674 24.7926542l-5.3317538 247.39336494a32.52369638 32.52369638 0 0 0 9.33056895 23.99289082 34.38981035 34.38981035 0 0 0 24.79265331 10.39691953 35.18957373 35.18957373 0 0 0 24.25947891-10.13033144 37.58886299 37.58886299 0 0 0 10.66350762-23.19312833l5.06516572-248.19312831a35.72274903 35.72274903 0 0 0-10.39691953-26.65876729z m95.70497608 274.8518956a37.58886299 37.58886299 0 0 0 10.66350673-23.19312744l3.19905264-141.82464462a33.05687168 33.05687168 0 0 0-9.33056895-24.25947892 34.65639844 34.65639844 0 0 0-24.52606611-10.13033144 32.52369638 32.52369638 0 0 0-24.25947891 9.86374336 34.65639844 34.65639844 0 0 0-10.39691953 24.526067L829.77883138 801.24763028a33.05687168 33.05687168 0 0 0 9.33056807 24.2594789 33.85663506 33.85663506 0 0 0 48.51895781 0z"
	/>
</svg>
