<svg xmlns="http://www.w3.org/2000/svg" viewBox="0 0 1024 1024">
	<path
		d="M512 62C263.86250029 62 62 263.86250029 62 512s201.86250029 450 450 450c248.10000029 0 450-201.86250029 450-450S760.10000029 62 512 62z m0 42.90000029c224.81250029 0 407.09999971 182.25 407.09999971 407.09999971 0 224.81250029-182.25 407.09999971-407.09999971 407.09999971-224.84999971 0-407.09999971-182.25-407.09999971-407.09999971C104.90000029 287.15000029 287.15000029 104.90000029 512 104.90000029zM375.875 282.05a251.51249971 251.51249971 0 0 0-15.8625 0.18749971c-36.86249971 2.09999971-58.98750029 19.38750029-65.06250029 55.20000058-4.31250029 24.93749971-3.6 50.55000029-5.36249971 75.63749942-0.48750029 13.12499971-1.87499971 26.13750029-4.31250029 38.925-5.02499971 22.8375-14.88750029 29.925-38.09999971 31.12500058a99.37500029 99.37500029 0 0 0-9.15000029 1.575v54.86249971c42.22500029 2.06250029 47.925 16.94999971 51.37500058 61.0875 1.2375 16.0875-0.48750029 32.175 0.5625 48.2625 0.675 15.22500029 2.73750029 30.30000029 5.85 45 9.71250029 40.31250029 49.01249971 53.81250029 96.56249942 45.675v-48.11249971c-7.61249971 0-14.36249971 0.18749971-20.925 0-16.12500029-0.48750029-22.1625-4.5-23.69999971-20.06250029-2.09999971-20.06250029-1.575-40.5-2.8125-60.75-2.40000029-37.53749971-6.56250029-74.54999971-43.23750029-98.4375 18.86249971-13.87500029 32.55000029-30.44999971 36.86250058-52.425 3.11249971-15.37499971 5.02499971-30.78749971 6.22499942-46.38750029 1.05000029-15.56250029-0.86249971-31.5 0.52500058-46.87499971 2.25-24.93749971 3.825-35.13750029 33.75-34.12500029 4.5 0 8.81250029-0.63749971 13.8375-1.0125v-49.12499971c-6.00000029 0-11.62500029-0.15000029-17.02500029-0.225z m284.7375 0.3375a159.26249971 159.26249971 0 0 0-30.4875 2.25v47.77499971c9.18749971 0 16.27499971 0 23.36249971 0.18750058 12.30000029 0.15000029 21.63750029 4.87500029 22.87500029 18.52499971 1.19999971 12.44999971 1.16250029 25.0875 2.40000029 37.72500029 2.43749971 25.0875 3.78749971 50.5125 8.13749942 75.2625 3.825 20.40000029 17.81250029 35.62499971 35.28750058 48.11249971-30.63750029 20.5875-39.63750029 49.98750029-41.175 83.06250029-0.86249971 22.65000029-1.38750029 45.48750029-2.5875 68.32499942-1.05000029 20.77499971-8.325 27.52499971-29.25 28.05000029-5.88750029 0.15000029-11.62500029 0.675-18.15000029 1.05000029v48.9375c12.2625 0 23.5125 0.71250029 34.7625 0 34.94999971-2.06250029 56.06250029-19.0125 63-52.95000058 2.925-18.675 4.65000029-37.50000029 5.175-56.39999942 1.19999971-17.28749971 1.05000029-34.7625 2.77499971-51.90000029 2.5875-26.81250029 14.88750029-37.87499971 41.70000058-39.63750029a36.45 36.45 0 0 0 7.46249942-1.72499942v-54.86250058c-4.5-0.52499971-7.65-1.0125-10.9125-1.19999971-20.09999971-0.86249971-30.15-7.61249971-35.13749942-26.62499971a192.97500029 192.97500029 0 0 1-5.70000058-37.2375c-1.38750029-23.175-1.2375-46.53749971-2.77499971-69.75-2.99999971-44.70000029-29.77499971-65.73750029-70.7625-66.97500029z m-258.37499971 198a31.65000029 31.65000029 0 0 0-3.11250058 63.15000029h2.06250029a31.12499971 31.12499971 0 0 0 32.88750029-29.25v-1.72500029a31.68749971 31.68749971 0 0 0-31.12500058-32.175z m109.16249942 0a30.30000029 30.30000029 0 0 0-31.275 29.25c0 1.0125 0 1.87499971 0.15000029 2.925 0 18.86249971 12.825 30.97500029 32.21250029 30.97500029 19.0125 0 30.97500029-12.44999971 30.97499942-31.98750029-0.18749971-18.86249971-12.825-31.34999971-32.0625-31.1625z m111.11250058 0a32.2875 32.2875 0 0 0-32.85 31.31250029c0 17.62499971 14.175 31.8375 31.8375 31.8375h0.3375c15.93749971 2.77499971 31.98750029-12.63750029 33.03749971-31.12500058 0.86249971-17.13750029-14.69999971-32.02499971-32.36249971-32.02499971z"
	/>
</svg>
