<svg xmlns="http://www.w3.org/2000/svg" viewBox="0 0 1024 1024">
	<path
		d="M708.8128 643.328c35.328-1.0752 64.8704 26.6752 65.9456 62.0032 1.0752 35.328-26.6752 64.8704-62.0032 65.9456h-3.9424c-35.328-1.0752-63.0784-30.6176-62.0032-65.9456 1.024-33.792 28.2112-60.9792 62.0032-62.0032h-0.0512z"
	/>
	<path
		d="M805.2224 104.96H174.8992c-48.896 0-91.8528 42.9056-91.8528 91.8528v630.3744c0 48.896 42.9568 91.8528 81.6128 91.8528h258.0992c29.3376 0 44.8-15.4624 44.8-34.56S452.096 849.92 432.9984 849.92H358.1952v-208.0256h74.8032c19.0976 0 34.56-15.4624 34.56-34.56s-15.4624-34.56-34.56-34.56H358.1952V374.9888h223.3856v46.336c0 19.0976 15.5136 34.56 34.56 34.56 19.0976 0 34.56-15.5136 34.56-34.56v-46.336h177.3056v48.9984c0.7168 19.0976 16.7936 33.9456 35.84 33.2288s33.9456-16.7936 33.2288-35.84V196.8128c0-48.9472-42.9056-91.8528-91.8528-91.8528zM283.3408 849.92H174.8992c-14.0288 0-22.7328-8.704-22.7328-22.7328v-185.2928h131.1744V849.92z m0-282.8288H152.1152V369.3056h131.2256v197.7856z m544.6656-266.9056h-675.84V196.8128c0-14.0288 8.704-22.7328 22.7328-22.7328h630.3232c14.08 0 22.784 8.704 22.784 22.7328v103.3728z"
	/>
	<path
		d="M852.6848 732.416l-50.7904 90.3168a51.24096 51.24096 0 0 1-44.544 26.0608h-97.1264c-18.4832 0-35.5328-9.9328-44.5952-26.0608l-50.7904-90.2656a51.47136 51.47136 0 0 1-0.1536-50.176l50.8416-90.2656a51.0208 51.0208 0 0 1 44.544-26.112h97.2288c18.5344 0 35.584 9.984 44.6464 26.112l50.688 90.2656c8.7552 15.5648 8.7552 34.6112 0 50.176m82.3296-47.616l-93.1328-165.632a45.952 45.952 0 0 0-40.0896-23.4496h-186.1632c-16.5888 0-31.8976 8.96-40.0384 23.4496l-93.184 165.632a45.86496 45.86496 0 0 0 0 45.056l93.184 165.5808a45.89568 45.89568 0 0 0 39.9872 23.4496h186.2144c16.64 0 31.9488-8.96 40.0896-23.4496l93.0304-165.5808a45.86496 45.86496 0 0 0 0-45.056"
	/>
</svg>
