<svg xmlns="http://www.w3.org/2000/svg" viewBox="0 0 1024 1024">
	<path
		d="M456.62890625 499.51953125h-167.34375c-18.45703125 0-29.70703125 15.46875-29.70703125 29.70703125 0 17.75390625 11.953125 29.70703125 29.70703125 29.70703125h167.34375c18.10546875 0 29.70703125-11.77734375 29.70703125-29.70703125 0-17.578125-11.953125-29.70703125-29.70703125-29.70703125z m0 167.6953125h-167.34375c-18.45703125 0-29.70703125 15.46875-29.70703125 29.70703125 0 17.75390625 11.953125 29.70703125 29.70703125 29.70703125h167.34375c18.10546875 0 29.70703125-11.6015625 29.70703125-29.70703125 0-17.75390625-11.953125-29.70703125-29.70703125-29.70703125z m336.09375 29.70703125c0-17.75390625-11.953125-29.70703125-29.70703125-29.70703125h-55.546875c-17.9296875 0-29.1796875 15.1171875-29.70703125 29.70703125 0 17.75390625 11.953125 29.70703125 29.70703125 29.70703125h55.546875c17.9296875 0.17578125 29.70703125-11.6015625 29.70703125-29.70703125zM456.62890625 332.17578125h-167.34375c-18.45703125 0-29.70703125 15.46875-29.70703125 29.70703125 0 17.75390625 11.953125 29.70703125 29.70703125 29.70703125h167.34375c17.75390625 0 29.70703125-11.953125 29.70703125-29.70703125 0-17.75390625-11.953125-29.70703125-29.70703125-29.70703125z m0 0"
	/>
	<path
		d="M930.359375 892.7421875h-25.83984375v-307.6171875c0-17.578125-9.140625-40.4296875-29.00390625-49.04296875l-249.43359375-163.30078125V115.96484375l-3.1640625-5.80078125c-10.1953125-24.2578125-30.5859375-38.3203125-55.8984375-38.3203125-4.21875 0-8.7890625 0.3515625-13.18359375 1.23046875h-0.17578125L160.0859375 190.49609375c-23.73046875 8.4375-40.25390625 31.9921875-40.25390625 57.3046875v644.94140625h-26.3671875C75.7109375 892.7421875 63.7578125 908.03515625 63.7578125 922.44921875c0 17.75390625 11.953125 29.70703125 29.70703125 29.70703125h571.9921875c16.34765625 0 29.70703125-13.359375 29.70703125-29.70703125 0-16.34765625-13.359375-29.70703125-29.70703125-29.70703125h-39.375V440.6328125l219.0234375 142.20703125v309.7265625h-44.47265625c-16.34765625 0-29.70703125 13.359375-29.70703125 29.70703125 0 16.34765625 13.359375 29.70703125 29.70703125 29.70703125H930.359375c17.75390625 0 29.70703125-12.12890625 29.70703125-30.41015625 0-15.8203125-13.53515625-28.828125-29.70703125-28.828125z m-364.21875 0H178.89453125V249.03125l387.0703125-116.19140625v760.078125h0.17578125z m0 0"
	/>
</svg>
