<svg xmlns="http://www.w3.org/2000/svg" viewBox="0 0 1024 1024">
	<path
		d="M872 62H152A90.26982422 90.26982422 0 0 0 62 152v720A90.26982422 90.26982422 0 0 0 152 962h720A90.26982422 90.26982422 0 0 0 962 872V152A90.26982422 90.26982422 0 0 0 872 62z m22.5 787.5a45 45 0 0 1-45 45H174.5A45 45 0 0 1 129.5 849.5V377h765zM129.5 309.5V174.5A45 45 0 0 1 174.5 129.5h675a45 45 0 0 1 45 45v135z"
	/>
	<path
		d="M219.5 197h45q22.5 0 22.5 22.5t-22.5 22.5h-45q-22.5 0-22.5-22.5t22.5-22.5zM377 197h45q22.5 0 22.5 22.5t-22.5 22.5h-45q-22.5 0-22.5-22.5t22.5-22.5zM534.5 197h45q22.5 0 22.5 22.5t-22.5 22.5h-45q-22.5 0-22.5-22.5t22.5-22.5zM598.75859375 521.10371094q17.23623047 14.46328125 2.77382813 31.69863281L456.90488281 725.16289062q-14.46240234 17.23535156-31.69863281 2.77294922-17.23535156-14.46240234-2.77294922-31.69863281l144.62753906-172.35966797q14.46240234-17.23623047 31.69863282-2.77382812z"
	/>
	<path
		d="M357.60517578 486.61982422a22.5 22.5 0 0 1-2.79052734-31.5l14.44570312-17.23535156a22.5 22.5 0 0 1 34.73964844 28.71035156l-14.48964844 17.23535156a22.5 22.5 0 0 1-31.90517578 2.78964844zM271.25 624.5l60.21035156-71.73017578a22.5 22.5 0 1 0-34.47070312-28.88964844l-72.31464844 86.175s-0.9 1.30517578-1.30517578 1.93447266-0.85517578 1.21552734-1.21464844 1.84570312-0.45 1.16894531-0.72070312 1.70947266-0.67412109 1.575-0.8991211 2.38535156 0 1.125-0.36035156 1.66464844a25.51464844 25.51464844 0 0 0-0.45 2.56552734 49.5 49.5 0 0 0 0 4.22929688 25.51464844 25.51464844 0 0 0 0.45 2.56552734c0 0.53964844 0 1.125 0.36035156 1.66464844s0.58447266 1.575 0.9 2.38535156 0.45 1.16982422 0.71982422 1.70947266 0.80947266 1.21552734 1.21464844 1.84570312 0.81035156 1.30429688 1.30517578 1.93447266 0 0 0 0.225l144.58535156 172.39482422a22.5 22.5 0 0 0 34.73964844-28.70947266z m530.775 10.43964844c0.26982422-0.53964844 0.45-1.16894531 0.72070313-1.70947266s0.67412109-1.575 0.89912109-2.38535156 0.225-1.125 0.36035156-1.66464844a25.51464844 25.51464844 0 0 0 0.45-2.56552734 49.725 49.725 0 0 0 0-4.22929688 25.51464844 25.51464844 0 0 0-0.45-2.56552734c0-0.53964844 0-1.125-0.36035156-1.66464844s-0.58447266-1.575-0.9-2.38535156-0.45-1.16982422-0.71982422-1.70947266-0.81035156-1.21552734-1.21464844-1.84570312-0.81035156-1.30429688-1.30517578-1.93447266l-144.76464844-172.61982422a22.5 22.5 0 0 0-34.51552734 28.93447266L752.75 624.5 620.225 782.40429688a22.5 22.5 0 0 0 34.51464844 28.93535156l144.58535156-172.39482422v-0.225c0-0.225 0.9-1.30517578 1.30517578-1.93447266s1.03447266-1.21552734 1.39482422-1.84570312z"
	/>
</svg>
