<svg xmlns="http://www.w3.org/2000/svg" viewBox="0 0 1024 1024">
	<path
		d="M353.796875 90.125L195.59375 90.125C137.5859375 90.125 90.125 137.5859375 90.125 195.59375l0 158.203125c0 58.0078125 47.4609375 105.46875 105.46875 105.46875l158.203125 0c58.0078125 0 105.46875-47.4609375 105.46875-105.46875L459.265625 195.59375C459.265625 137.5859375 411.8046875 90.125 353.796875 90.125zM353.796875 301.0625c0 31.640625-21.09375 52.734375-52.734375 52.734375L248.328125 353.796875C216.6875 353.796875 195.59375 332.703125 195.59375 301.0625L195.59375 248.328125c0-31.640625 21.09375-52.734375 52.734375-52.734375l52.734375 0c31.640625 0 52.734375 21.09375 52.734375 52.734375L353.796875 301.0625z"
	/>
	<path
		d="M353.796875 564.734375L195.59375 564.734375c-58.0078125 0-105.46875 47.4609375-105.46875 105.46875l0 158.203125c0 58.0078125 47.4609375 105.46875 105.46875 105.46875l158.203125 0c58.0078125 0 105.46875-47.4609375 105.46875-105.46875l0-158.203125C459.265625 612.1953125 411.8046875 564.734375 353.796875 564.734375zM353.796875 775.671875c0 31.640625-21.09375 52.734375-52.734375 52.734375L248.328125 828.40625c-31.640625 0-52.734375-21.09375-52.734375-52.734375l0-52.734375c0-31.640625 21.09375-52.734375 52.734375-52.734375l52.734375 0c31.640625 0 52.734375 21.09375 52.734375 52.734375L353.796875 775.671875z"
	/>
	<path
		d="M828.40625 90.125l-158.203125 0C612.1953125 90.125 564.734375 137.5859375 564.734375 195.59375l0 158.203125c0 58.0078125 47.4609375 105.46875 105.46875 105.46875l158.203125 0c58.0078125 0 105.46875-47.4609375 105.46875-105.46875L933.875 195.59375C933.875 137.5859375 886.4140625 90.125 828.40625 90.125zM828.40625 301.0625c0 31.640625-21.09375 52.734375-52.734375 52.734375l-52.734375 0c-31.640625 0-52.734375-21.09375-52.734375-52.734375L670.203125 248.328125c0-31.640625 21.09375-52.734375 52.734375-52.734375l52.734375 0c31.640625 0 52.734375 21.09375 52.734375 52.734375L828.40625 301.0625z"
	/>
	<path
		d="M828.40625 564.734375l-158.203125 0c-58.0078125 0-105.46875 47.4609375-105.46875 105.46875l0 158.203125c0 58.0078125 47.4609375 105.46875 105.46875 105.46875l158.203125 0c58.0078125 0 105.46875-47.4609375 105.46875-105.46875l0-158.203125C933.875 612.1953125 886.4140625 564.734375 828.40625 564.734375zM828.40625 775.671875c0 31.640625-21.09375 52.734375-52.734375 52.734375l-52.734375 0c-31.640625 0-52.734375-21.09375-52.734375-52.734375l0-52.734375c0-31.640625 21.09375-52.734375 52.734375-52.734375l52.734375 0c31.640625 0 52.734375 21.09375 52.734375 52.734375L828.40625 775.671875z"
	/>
</svg>
